<svg width="600.005" height="93.802" viewBox="0 0 541.005 93.802" xmlns="http://www.w3.org/2000/svg"><g id="svgGroup" stroke-linecap="round" fill-rule="evenodd" font-size="9pt" stroke="#fafafa" stroke-width="3mm" fill="#fafafa" style="stroke:#fafafa;stroke-width:3mm;fill:#fafafa"><path d="M 58.702 15.502 L 58.202 15.502 Q 47.902 8.702 35.502 8.702 A 32.498 32.498 0 0 0 27.327 9.672 A 22.631 22.631 0 0 0 16.102 16.302 Q 9.102 23.902 9.102 35.902 A 33.603 33.603 0 0 0 10.235 44.846 A 25.461 25.461 0 0 0 16.102 55.502 A 22.981 22.981 0 0 0 28.954 62.5 A 33.952 33.952 0 0 0 35.502 63.102 Q 47.902 63.102 58.202 56.302 L 58.702 56.302 L 58.702 65.302 Q 47.902 71.802 35.002 71.802 A 39.277 39.277 0 0 1 22.859 70.001 A 32.462 32.462 0 0 1 9.852 62.052 Q 2.674 54.947 0.727 44.311 A 46.667 46.667 0 0 1 0.002 35.902 A 44.179 44.179 0 0 1 1.387 24.537 A 31.922 31.922 0 0 1 9.852 9.752 A 33.347 33.347 0 0 1 31.148 0.164 A 44.921 44.921 0 0 1 35.002 0.002 Q 47.902 0.002 58.702 6.502 L 58.702 15.502 Z M 146.002 19.802 L 155.802 19.802 L 125.102 93.802 L 115.902 93.802 L 124.502 71.602 L 103.402 19.802 L 113.202 19.802 L 129.202 60.102 L 129.602 60.102 L 146.002 19.802 Z M 173.502 64.402 L 173.202 64.402 L 173.202 93.802 L 164.102 93.802 L 164.102 19.802 L 172.102 19.802 L 173.202 26.202 L 173.502 26.202 Q 180.602 18.802 190.302 18.802 A 23.24 23.24 0 0 1 207.017 25.771 A 30.313 30.313 0 0 1 207.252 26.002 A 24.055 24.055 0 0 1 213.975 39.135 A 34.553 34.553 0 0 1 214.502 45.302 A 32.68 32.68 0 0 1 213.482 53.687 A 23.592 23.592 0 0 1 207.252 64.602 Q 200.002 71.802 190.302 71.802 Q 180.602 71.802 173.502 64.402 Z M 501.802 30.802 L 501.802 22.602 Q 510.502 18.802 520.452 18.802 A 27.356 27.356 0 0 1 526.481 19.426 Q 532.141 20.705 535.702 24.602 Q 541.002 30.402 541.002 38.502 L 541.002 70.802 L 533.002 70.802 L 531.902 64.402 L 531.602 64.402 Q 524.402 71.802 513.102 71.802 A 18.713 18.713 0 0 1 506.905 70.808 A 16.381 16.381 0 0 1 501.552 67.702 Q 496.802 63.602 496.802 56.502 A 13.528 13.528 0 0 1 501.281 46.144 A 17.522 17.522 0 0 1 502.652 45.002 A 19.125 19.125 0 0 1 508.304 42.153 Q 513.092 40.602 519.802 40.602 L 531.902 40.602 L 531.902 39.802 A 21.132 21.132 0 0 0 531.645 36.382 Q 531.352 34.602 530.727 33.202 A 8.432 8.432 0 0 0 528.652 30.302 A 9.132 9.132 0 0 0 525.856 28.65 Q 523.159 27.599 519.013 27.433 A 40.195 40.195 0 0 0 517.402 27.402 Q 509.402 27.402 502.402 30.802 L 501.802 30.802 Z M 328.202 1.002 L 352.802 1.002 A 41.855 41.855 0 0 1 361.955 1.967 A 34.746 34.746 0 0 1 368.352 4.052 A 32.985 32.985 0 0 1 374.788 7.742 A 26.654 26.654 0 0 1 379.502 12.202 Q 388.102 22.502 388.102 35.902 Q 388.102 46.602 382.502 55.402 Q 376.402 65.102 365.602 68.802 Q 359.702 70.802 352.802 70.802 L 328.202 70.802 L 328.202 1.002 Z M 254.102 19.802 L 254.102 27.602 L 239.602 27.602 L 239.602 57.802 A 11.774 11.774 0 0 0 239.72 59.54 Q 240.038 61.663 241.214 62.592 A 3.096 3.096 0 0 0 241.902 63.002 A 9.071 9.071 0 0 0 243.609 63.516 Q 245.009 63.802 246.802 63.802 A 13.215 13.215 0 0 0 249.746 63.45 Q 251.108 63.139 252.573 62.552 A 24.161 24.161 0 0 0 253.402 62.202 L 254.102 62.202 L 254.102 69.602 Q 249.902 71.802 245.102 71.802 A 23.53 23.53 0 0 1 239.592 71.214 Q 230.502 69.017 230.502 58.602 L 230.502 27.602 L 221.002 27.602 L 221.002 27.002 L 239.602 8.802 L 239.602 19.802 L 254.102 19.802 Z M 337.302 62.302 L 351.702 62.302 A 34.256 34.256 0 0 0 360.313 61.275 A 24.794 24.794 0 0 0 371.602 55.002 Q 379.102 47.702 379.102 35.902 A 30.157 30.157 0 0 0 377.867 27.066 A 23.799 23.799 0 0 0 371.602 16.802 Q 364.102 9.502 351.702 9.502 L 337.302 9.502 L 337.302 62.302 Z M 263.549 36.786 A 32.884 32.884 0 0 0 262.502 45.302 A 34.941 34.941 0 0 0 262.996 51.299 A 24.715 24.715 0 0 0 269.502 64.502 A 22.744 22.744 0 0 0 279.722 70.688 A 29.639 29.639 0 0 0 288.052 71.802 A 32.863 32.863 0 0 0 292.267 71.54 A 23.563 23.563 0 0 0 306.652 64.502 A 24.143 24.143 0 0 0 312.637 53.857 A 32.633 32.633 0 0 0 313.702 45.302 Q 313.702 33.402 306.652 26.102 A 22.947 22.947 0 0 0 296.388 19.915 A 29.719 29.719 0 0 0 288.052 18.802 A 32.58 32.58 0 0 0 283.547 19.103 A 23.318 23.318 0 0 0 269.502 26.102 A 24.195 24.195 0 0 0 263.549 36.786 Z M 399.349 36.786 A 32.884 32.884 0 0 0 398.302 45.302 A 34.941 34.941 0 0 0 398.796 51.299 A 24.715 24.715 0 0 0 405.302 64.502 A 22.744 22.744 0 0 0 415.522 70.688 A 29.639 29.639 0 0 0 423.852 71.802 A 32.863 32.863 0 0 0 428.067 71.54 A 23.563 23.563 0 0 0 442.452 64.502 A 24.143 24.143 0 0 0 448.437 53.857 A 32.633 32.633 0 0 0 449.502 45.302 Q 449.502 33.402 442.452 26.102 A 22.947 22.947 0 0 0 432.188 19.915 A 29.719 29.719 0 0 0 423.852 18.802 A 32.58 32.58 0 0 0 419.347 19.103 A 23.318 23.318 0 0 0 405.302 26.102 A 24.195 24.195 0 0 0 399.349 36.786 Z M 100.202 18.802 L 101.002 18.802 L 101.002 27.502 L 100.202 27.502 A 26.564 26.564 0 0 0 89.923 29.489 A 25.714 25.714 0 0 0 89.202 29.802 A 20.934 20.934 0 0 0 84.281 32.855 A 17.82 17.82 0 0 0 81.202 36.202 L 81.202 70.802 L 72.102 70.802 L 72.102 19.802 L 80.102 19.802 L 81.202 26.202 L 81.202 27.702 L 81.402 27.702 Q 88.602 18.802 100.202 18.802 Z M 490.302 18.802 L 491.102 18.802 L 491.102 27.502 L 490.302 27.502 A 26.564 26.564 0 0 0 480.023 29.489 A 25.714 25.714 0 0 0 479.302 29.802 A 20.934 20.934 0 0 0 474.381 32.855 A 17.82 17.82 0 0 0 471.302 36.202 L 471.302 70.802 L 462.202 70.802 L 462.202 19.802 L 470.202 19.802 L 471.302 26.202 L 471.302 27.702 L 471.502 27.702 Q 478.702 18.802 490.302 18.802 Z M 173.202 34.802 L 173.202 55.802 A 24.86 24.86 0 0 0 178.85 60.516 A 19.456 19.456 0 0 0 189.002 63.302 A 18.927 18.927 0 0 0 194.34 62.584 A 14.62 14.62 0 0 0 200.902 58.602 A 15.338 15.338 0 0 0 204.54 52.08 Q 205.402 49.064 205.402 45.302 A 26.436 26.436 0 0 0 204.917 40.078 Q 204.282 36.927 202.812 34.499 A 14.308 14.308 0 0 0 200.902 32.002 Q 196.402 27.302 189.002 27.302 A 19.982 19.982 0 0 0 175.436 32.592 A 28.003 28.003 0 0 0 173.202 34.802 Z M 276.552 58.952 Q 281.502 63.502 288.102 63.502 Q 294.702 63.502 299.652 58.952 Q 303.971 54.981 304.521 47.509 A 30.74 30.74 0 0 0 304.602 45.252 Q 304.602 36.102 299.652 31.602 Q 294.702 27.102 288.102 27.102 Q 281.502 27.102 276.552 31.602 A 14.126 14.126 0 0 0 272.618 37.914 Q 271.888 40.208 271.682 42.995 A 30.707 30.707 0 0 0 271.602 45.252 A 26.865 26.865 0 0 0 272.079 50.491 Q 273.139 55.815 276.552 58.952 Z M 412.352 58.952 Q 417.302 63.502 423.902 63.502 Q 430.502 63.502 435.452 58.952 Q 439.771 54.981 440.321 47.509 A 30.74 30.74 0 0 0 440.402 45.252 Q 440.402 36.102 435.452 31.602 Q 430.502 27.102 423.902 27.102 Q 417.302 27.102 412.352 31.602 A 14.126 14.126 0 0 0 408.418 37.914 Q 407.688 40.208 407.482 42.995 A 30.707 30.707 0 0 0 407.402 45.252 A 26.865 26.865 0 0 0 407.879 50.491 Q 408.939 55.815 412.352 58.952 Z M 531.902 56.302 L 531.902 47.902 L 521.002 47.902 A 42.95 42.95 0 0 0 515.918 48.175 Q 505.902 49.377 505.902 55.852 A 8.351 8.351 0 0 0 506.65 59.514 Q 508.351 63.042 513.922 63.667 A 23.186 23.186 0 0 0 516.502 63.802 A 18.077 18.077 0 0 0 524.998 61.654 A 28.845 28.845 0 0 0 525.002 61.652 A 24.566 24.566 0 0 0 530.125 58.109 A 21.934 21.934 0 0 0 531.902 56.302 Z" vector-effect="non-scaling-stroke"/></g></svg>