<svg width="778.9" height="96" viewBox="0 0 778.9 96" xmlns="http://www.w3.org/2000/svg"><g id="svgGroup" stroke-linecap="round" fill-rule="evenodd" font-size="9pt" stroke="#fafafa" stroke-width="3mm" fill="#fafafa" style="stroke:#fafafa;stroke-width:3mm;fill:#fafafa"><path d="M 217.5 74 L 208.5 74 L 208.5 4 L 221.8 4 L 241.2 48.3 L 260.3 4 L 273.9 4 L 273.9 74 L 264.4 74 L 264.4 16.1 L 245.7 58.2 L 236.3 58.2 L 217.5 16.1 L 217.5 74 Z M 9 74 L 0 74 L 0 4 L 12.6 4 L 43.5 62.2 L 43.5 4 L 52.5 4 L 52.5 74 L 40.1 74 L 9 16.2 L 9 74 Z M 434.6 69 L 428.4 75 L 401.5 47.3 L 401.5 74 L 392.5 74 L 392.5 0 L 401.5 0 L 401.5 42.3 L 425 21 L 430.2 26.7 L 410.1 44.5 L 434.6 69 Z M 80 74 L 70.5 74 L 70.5 4 L 112 4 L 112 12.2 L 80 12.2 L 80 33.6 L 106.7 33.6 L 106.7 41.4 L 80 41.4 L 80 74 Z M 147 74 L 137.5 74 L 137.5 12.4 L 116 12.4 L 116 4 L 168.5 4 L 168.5 12.4 L 147 12.4 L 147 74 Z M 546.1 96 L 537.1 96 L 537.1 35.3 A 11.015 11.015 0 0 0 536.973 33.564 Q 536.642 31.498 535.45 30.45 A 5.718 5.718 0 0 0 532.66 29.128 A 7.991 7.991 0 0 0 531.2 29 L 533.1 22 Q 538.962 22 542.022 24.964 A 10.15 10.15 0 0 1 544.6 29.3 Q 545.555 27.867 547.652 25.977 A 38.58 38.58 0 0 1 547.85 25.8 A 18.902 18.902 0 0 1 550.551 23.816 A 25.569 25.569 0 0 1 553.45 22.3 A 16.955 16.955 0 0 1 558.009 21.011 A 21.886 21.886 0 0 1 561.1 20.8 Q 567.1 20.8 572.35 23.95 A 22.329 22.329 0 0 1 579.528 30.917 A 27.464 27.464 0 0 1 580.8 33.05 Q 584 39 584 47.5 Q 584 55.8 580.8 62.05 A 27.846 27.846 0 0 1 576.866 67.882 A 23.029 23.029 0 0 1 572.45 71.75 Q 567.3 75.2 561.3 75.2 Q 556.7 75.2 552.7 73.35 A 30.352 30.352 0 0 1 549.284 71.511 Q 547.491 70.384 546.1 69.1 L 546.1 96 Z M 484.2 51.7 L 447.8 51.7 A 24.088 24.088 0 0 0 448.939 56.725 Q 450.275 60.538 452.9 63.1 Q 457.1 67.2 464 67.2 Q 468.5 67.2 472.1 66.25 Q 475.7 65.3 479 63.8 L 481.1 71.5 A 40.77 40.77 0 0 1 476.765 73.126 A 51.863 51.863 0 0 1 473 74.15 A 38.914 38.914 0 0 1 467.908 74.969 A 52.025 52.025 0 0 1 462.9 75.2 A 28.318 28.318 0 0 1 455.154 74.195 A 21.108 21.108 0 0 1 445.15 68.05 A 23.521 23.521 0 0 1 439.945 58.51 Q 438.6 53.845 438.6 48 A 35.359 35.359 0 0 1 439.433 40.178 A 28.84 28.84 0 0 1 441.55 34.05 A 24.642 24.642 0 0 1 446.566 26.968 A 22.887 22.887 0 0 1 449.8 24.35 A 21.048 21.048 0 0 1 460.059 20.878 A 26.205 26.205 0 0 1 462.1 20.8 Q 469.6 20.8 474.55 24.05 Q 479.5 27.3 482 32.8 A 28.185 28.185 0 0 1 484.426 42.664 A 33.434 33.434 0 0 1 484.5 44.9 A 75.204 75.204 0 0 1 484.209 51.597 A 69.426 69.426 0 0 1 484.2 51.7 Z M 778.6 51.7 L 742.2 51.7 A 24.088 24.088 0 0 0 743.339 56.725 Q 744.675 60.538 747.3 63.1 Q 751.5 67.2 758.4 67.2 Q 762.9 67.2 766.5 66.25 Q 770.1 65.3 773.4 63.8 L 775.5 71.5 A 40.77 40.77 0 0 1 771.165 73.126 A 51.863 51.863 0 0 1 767.4 74.15 A 38.914 38.914 0 0 1 762.308 74.969 A 52.025 52.025 0 0 1 757.3 75.2 A 28.318 28.318 0 0 1 749.554 74.195 A 21.108 21.108 0 0 1 739.55 68.05 A 23.521 23.521 0 0 1 734.345 58.51 Q 733 53.845 733 48 A 35.359 35.359 0 0 1 733.833 40.178 A 28.84 28.84 0 0 1 735.95 34.05 A 24.642 24.642 0 0 1 740.966 26.968 A 22.887 22.887 0 0 1 744.2 24.35 A 21.048 21.048 0 0 1 754.459 20.878 A 26.205 26.205 0 0 1 756.5 20.8 Q 764 20.8 768.95 24.05 Q 773.9 27.3 776.4 32.8 A 28.185 28.185 0 0 1 778.826 42.664 A 33.434 33.434 0 0 1 778.9 44.9 A 75.204 75.204 0 0 1 778.609 51.597 A 69.426 69.426 0 0 1 778.6 51.7 Z M 498.5 56.1 L 498.5 31.7 L 489.5 31.7 L 489.5 23.9 L 498.7 23.9 L 500.6 7.5 L 507.5 7.5 L 507.5 23.9 L 521.9 23.9 L 521.9 31.7 L 507.5 31.7 L 507.5 56.8 A 21.559 21.559 0 0 0 507.668 59.596 Q 508.141 63.202 509.95 64.9 Q 512.4 67.2 515.8 67.2 Q 518.3 67.2 520.55 66.4 Q 522.8 65.6 524.7 64.5 L 527.2 71.7 A 18.546 18.546 0 0 1 525.582 72.556 Q 524.78 72.935 523.834 73.308 A 43.365 43.365 0 0 1 521.8 74.05 Q 518.4 75.2 514.7 75.2 Q 507.2 75.2 502.85 70.25 A 16.116 16.116 0 0 1 499.622 64.348 Q 498.859 61.917 498.615 58.98 A 34.777 34.777 0 0 1 498.5 56.1 Z M 726.2 23.9 L 723.5 31.5 A 30.422 30.422 0 0 0 720.596 30.224 A 23.42 23.42 0 0 0 718.15 29.45 A 20.543 20.543 0 0 0 715.107 28.924 A 26.355 26.355 0 0 0 712.5 28.8 A 15.889 15.889 0 0 0 705.247 30.443 A 16.132 16.132 0 0 0 700.75 33.85 Q 696 38.9 696 47.8 A 25.192 25.192 0 0 0 696.705 53.86 A 21.45 21.45 0 0 0 698 57.6 A 18.564 18.564 0 0 0 700.91 62.177 A 16.275 16.275 0 0 0 703.55 64.6 Q 707.1 67.2 711.9 67.2 Q 715.065 67.2 717.468 66.61 A 15.08 15.08 0 0 0 718.4 66.35 Q 721.089 65.503 724.176 63.912 A 49.095 49.095 0 0 0 724.2 63.9 L 727 71.5 Q 723.9 73.2 720.05 74.2 Q 716.2 75.2 711.3 75.2 A 26.803 26.803 0 0 1 704.261 74.31 A 22.074 22.074 0 0 1 698.35 71.75 Q 692.8 68.3 689.8 62.15 Q 686.8 56 686.8 48 Q 686.8 40.5 689.85 34.3 Q 692.9 28.1 698.6 24.45 A 23.067 23.067 0 0 1 708.268 21.029 A 29.608 29.608 0 0 1 712 20.8 Q 716.4 20.8 719.75 21.6 Q 723.1 22.4 726.2 23.9 Z M 326.5 26.2 L 326.5 22 L 334.7 22 L 334.7 61.4 A 12.15 12.15 0 0 0 334.802 63.036 Q 335.134 65.47 336.55 66.35 Q 338.4 67.5 340.6 67.5 L 338.7 74.5 A 17.722 17.722 0 0 1 334.435 74.028 Q 328.798 72.628 327.203 67.08 A 13.59 13.59 0 0 1 327.1 66.7 A 21.307 21.307 0 0 1 323.99 70.126 A 28.498 28.498 0 0 1 320.85 72.55 Q 316.9 75.2 310.8 75.2 Q 304.3 75.2 299 71.9 A 22.947 22.947 0 0 1 291.587 64.373 A 27.923 27.923 0 0 1 290.55 62.55 A 27.228 27.228 0 0 1 287.92 54.608 A 36.644 36.644 0 0 1 287.4 48.3 A 33.142 33.142 0 0 1 288.397 40.031 A 27.968 27.968 0 0 1 290.55 34.3 Q 293.7 28.1 299.25 24.45 A 22.297 22.297 0 0 1 310.445 20.844 A 27.388 27.388 0 0 1 312 20.8 A 22.584 22.584 0 0 1 316.794 21.29 A 18.703 18.703 0 0 1 320.15 22.35 A 26.002 26.002 0 0 1 324.437 24.644 A 22.103 22.103 0 0 1 326.5 26.2 Z M 665.2 26.2 L 665.2 22 L 673.4 22 L 673.4 61.4 A 12.15 12.15 0 0 0 673.502 63.036 Q 673.834 65.47 675.25 66.35 Q 677.1 67.5 679.3 67.5 L 677.4 74.5 A 17.722 17.722 0 0 1 673.135 74.028 Q 667.498 72.628 665.903 67.08 A 13.59 13.59 0 0 1 665.8 66.7 A 21.307 21.307 0 0 1 662.69 70.126 A 28.498 28.498 0 0 1 659.55 72.55 Q 655.6 75.2 649.5 75.2 Q 643 75.2 637.7 71.9 A 22.947 22.947 0 0 1 630.287 64.373 A 27.923 27.923 0 0 1 629.25 62.55 A 27.228 27.228 0 0 1 626.62 54.608 A 36.644 36.644 0 0 1 626.1 48.3 A 33.142 33.142 0 0 1 627.097 40.031 A 27.968 27.968 0 0 1 629.25 34.3 Q 632.4 28.1 637.95 24.45 A 22.297 22.297 0 0 1 649.145 20.844 A 27.388 27.388 0 0 1 650.7 20.8 A 22.584 22.584 0 0 1 655.494 21.29 A 18.703 18.703 0 0 1 658.85 22.35 A 26.002 26.002 0 0 1 663.137 24.644 A 22.103 22.103 0 0 1 665.2 26.2 Z M 596 57.7 L 596 0 L 605 0 L 605 56.8 A 20.644 20.644 0 0 0 605.188 59.688 Q 605.65 62.952 607.25 64.8 A 7.363 7.363 0 0 0 611.834 67.276 A 10.724 10.724 0 0 0 613.5 67.4 Q 615.4 67.4 617.25 66.95 A 22.192 22.192 0 0 0 618.713 66.544 Q 619.648 66.247 620.4 65.9 L 622.6 73.2 Q 621.201 73.822 619.288 74.323 A 34.978 34.978 0 0 1 618.15 74.6 A 23.816 23.816 0 0 1 614.995 75.085 A 30.514 30.514 0 0 1 612.3 75.2 A 20.862 20.862 0 0 1 607.41 74.646 A 17.544 17.544 0 0 1 604 73.45 A 12.683 12.683 0 0 1 598.675 68.685 A 15.856 15.856 0 0 1 598.15 67.8 Q 596.416 64.654 596.08 60.012 A 32.105 32.105 0 0 1 596 57.7 Z M 361.6 74 L 352.6 74 L 352.6 22 L 361.3 22 L 361.3 33.3 Q 362.6 30 364.8 27.15 Q 367 24.3 370.3 22.55 A 14.817 14.817 0 0 1 374.98 21.026 A 19.459 19.459 0 0 1 378 20.8 Q 379.5 20.8 381 20.95 A 18.972 18.972 0 0 1 382.055 21.084 Q 382.555 21.162 382.982 21.262 A 8.817 8.817 0 0 1 383.5 21.4 L 380.8 30.7 A 9.763 9.763 0 0 0 378.655 30.088 Q 377.559 29.9 376.3 29.9 A 12.958 12.958 0 0 0 369.67 31.746 A 15.609 15.609 0 0 0 369.25 32 Q 365.922 34.086 363.778 38.442 A 22.927 22.927 0 0 0 363.75 38.5 Q 361.987 42.107 361.67 47.328 A 39.09 39.09 0 0 0 361.6 49.7 L 361.6 74 Z M 325.7 60.7 L 325.7 32.8 Q 323 30.9 319.75 29.75 Q 316.5 28.6 312.9 28.6 A 15.924 15.924 0 0 0 307.929 29.354 A 14.024 14.024 0 0 0 304.45 31.05 A 16.301 16.301 0 0 0 299.431 36.474 A 19.962 19.962 0 0 0 298.7 37.85 A 20.663 20.663 0 0 0 296.947 43.527 A 27.678 27.678 0 0 0 296.6 48 Q 296.6 53.6 298.7 57.95 A 17.602 17.602 0 0 0 301.806 62.496 A 15.697 15.697 0 0 0 304.5 64.75 Q 308.2 67.2 312.8 67.2 Q 316.6 67.2 320 65.35 Q 323.4 63.5 325.7 60.7 Z M 664.4 60.7 L 664.4 32.8 Q 661.7 30.9 658.45 29.75 Q 655.2 28.6 651.6 28.6 A 15.924 15.924 0 0 0 646.629 29.354 A 14.024 14.024 0 0 0 643.15 31.05 A 16.301 16.301 0 0 0 638.131 36.474 A 19.962 19.962 0 0 0 637.4 37.85 A 20.663 20.663 0 0 0 635.647 43.527 A 27.678 27.678 0 0 0 635.3 48 Q 635.3 53.6 637.4 57.95 A 17.602 17.602 0 0 0 640.506 62.496 A 15.697 15.697 0 0 0 643.2 64.75 Q 646.9 67.2 651.5 67.2 Q 655.3 67.2 658.7 65.35 Q 662.1 63.5 664.4 60.7 Z M 546.1 35.4 L 546.1 61 Q 548.7 63.7 552.1 65.45 Q 555.5 67.2 559.5 67.2 Q 566.194 67.2 570.417 62.016 A 17.38 17.38 0 0 0 570.55 61.85 A 18.792 18.792 0 0 0 574.044 54.544 Q 574.705 51.855 574.788 48.708 A 34.555 34.555 0 0 0 574.8 47.8 Q 574.8 41.8 572.65 37.5 Q 570.5 33.2 566.95 30.9 Q 563.4 28.6 559.1 28.6 A 14.741 14.741 0 0 0 553.473 29.663 A 14.054 14.054 0 0 0 551.35 30.75 Q 547.9 32.9 546.1 35.4 Z M 447.7 44.4 L 476.2 44.4 A 24.355 24.355 0 0 0 475.796 39.815 Q 475.3 37.231 474.196 35.207 A 12.422 12.422 0 0 0 472.4 32.7 A 12.488 12.488 0 0 0 465.439 28.924 A 18.395 18.395 0 0 0 461.9 28.6 A 13.58 13.58 0 0 0 456.788 29.535 A 12.524 12.524 0 0 0 452.3 32.65 Q 448.5 36.7 447.7 44.4 Z M 742.1 44.4 L 770.6 44.4 A 24.355 24.355 0 0 0 770.196 39.815 Q 769.7 37.231 768.596 35.207 A 12.422 12.422 0 0 0 766.8 32.7 A 12.488 12.488 0 0 0 759.839 28.924 A 18.395 18.395 0 0 0 756.3 28.6 A 13.58 13.58 0 0 0 751.188 29.535 A 12.524 12.524 0 0 0 746.7 32.65 Q 742.9 36.7 742.1 44.4 Z" vector-effect="non-scaling-stroke"/></g></svg>