<svg width="38.27" height="7.24" viewBox="0 0 38.27 7.24" xmlns="http://www.w3.org/2000/svg"><g id="svgGroup" stroke-linecap="round" fill-rule="evenodd" font-size="9pt" stroke="#fafafa" stroke-width="3" fill="#fafafa" style="stroke:#fafafa;stroke-width:3;fill:#fafafa"><path d="M 21.53 7.1 L 18.95 7.1 L 18.95 6.91 L 19.1 6.87 Q 19.479 6.766 19.508 6.419 A 0.691 0.691 0 0 0 19.51 6.38 Q 19.51 6.03 19.515 5.685 Q 19.52 5.34 19.52 5 L 19.52 2.61 L 18.95 2.61 L 18.95 2.39 L 19.17 2.35 Q 19.37 2.32 19.46 2.205 A 0.535 0.535 0 0 0 19.525 2.096 Q 19.566 2.005 19.59 1.88 A 2.962 2.962 0 0 1 19.723 1.495 A 2.272 2.272 0 0 1 19.885 1.185 Q 20.07 0.89 20.33 0.64 Q 20.7 0.28 21.12 0.14 Q 21.54 0 21.94 0 A 1.707 1.707 0 0 1 22.44 0.072 A 1.543 1.543 0 0 1 22.655 0.155 A 0.601 0.601 0 0 1 22.845 0.292 Q 22.98 0.442 22.98 0.68 A 0.706 0.706 0 0 1 22.958 0.86 A 0.509 0.509 0 0 1 22.825 1.095 Q 22.685 1.235 22.434 1.249 A 1.015 1.015 0 0 1 22.38 1.25 A 0.784 0.784 0 0 1 21.886 1.07 Q 21.718 0.938 21.57 0.71 L 21.45 0.57 A 0.515 0.515 0 0 0 21.398 0.513 Q 21.304 0.427 21.21 0.45 Q 21.09 0.48 21.04 0.65 Q 20.96 0.97 20.915 1.4 A 10.54 10.54 0 0 0 20.867 2.068 A 11.951 11.951 0 0 0 20.86 2.3 L 22.01 2.3 L 22.01 2.61 L 20.86 2.61 L 20.86 5 Q 20.86 5.34 20.865 5.675 Q 20.87 6.01 20.87 6.35 Q 20.87 6.75 21.27 6.84 L 21.53 6.91 L 21.53 7.1 Z M 2.64 7.1 L 0 7.1 L 0 6.89 L 0.2 6.84 A 0.703 0.703 0 0 0 0.301 6.802 Q 0.352 6.777 0.389 6.747 A 0.268 0.268 0 0 0 0.46 6.66 Q 0.502 6.575 0.515 6.446 A 1.212 1.212 0 0 0 0.52 6.33 Q 0.53 5.76 0.53 5.175 L 0.53 4 L 0.53 3.59 L 0.53 2.43 Q 0.53 1.85 0.52 1.27 A 1.093 1.093 0 0 0 0.514 1.148 Q 0.5 1.024 0.455 0.945 A 0.302 0.302 0 0 0 0.382 0.861 Q 0.311 0.803 0.192 0.761 A 1.104 1.104 0 0 0 0.19 0.76 L 0 0.7 L 0 0.49 L 2.41 0.49 A 6.196 6.196 0 0 1 3.164 0.533 Q 3.956 0.63 4.423 0.951 A 1.664 1.664 0 0 1 4.535 1.035 A 1.743 1.743 0 0 1 5.194 2.306 A 2.26 2.26 0 0 1 5.2 2.47 Q 5.2 3.03 4.925 3.505 A 1.628 1.628 0 0 1 4.488 3.989 Q 4.3 4.131 4.057 4.243 A 2.902 2.902 0 0 1 4.02 4.26 Q 3.576 4.457 2.913 4.516 A 6.793 6.793 0 0 1 2.32 4.54 L 1.96 4.54 L 1.96 5.405 Q 1.96 5.85 1.97 6.31 A 0.68 0.68 0 0 0 1.995 6.5 Q 2.065 6.743 2.34 6.81 L 2.64 6.89 L 2.64 7.1 Z M 13.51 7.1 L 11.01 7.1 L 11.01 6.91 L 11.16 6.86 A 0.691 0.691 0 0 0 11.268 6.824 Q 11.325 6.799 11.366 6.766 A 0.303 0.303 0 0 0 11.435 6.69 A 0.449 0.449 0 0 0 11.487 6.567 Q 11.502 6.511 11.507 6.443 A 0.951 0.951 0 0 0 11.51 6.37 L 11.51 3.44 A 1.207 1.207 0 0 0 11.498 3.316 Q 11.479 3.185 11.43 3.105 Q 11.377 3.018 11.248 2.973 A 0.688 0.688 0 0 0 11.16 2.95 L 11.01 2.91 L 11.01 2.73 L 12.64 2.15 L 12.76 2.26 L 12.85 3.14 L 12.85 3.21 Q 13 2.93 13.23 2.69 A 2.162 2.162 0 0 1 13.622 2.365 A 1.965 1.965 0 0 1 13.73 2.3 Q 14 2.15 14.27 2.15 A 1.147 1.147 0 0 1 14.488 2.169 Q 14.61 2.193 14.705 2.246 A 0.562 0.562 0 0 1 14.84 2.35 A 0.684 0.684 0 0 1 15.024 2.757 A 0.926 0.926 0 0 1 15.03 2.86 A 0.969 0.969 0 0 1 15.011 3.061 Q 14.985 3.183 14.925 3.275 A 0.526 0.526 0 0 1 14.84 3.375 Q 14.65 3.55 14.38 3.55 A 0.816 0.816 0 0 1 13.812 3.321 A 1.2 1.2 0 0 1 13.69 3.19 L 13.67 3.17 A 0.457 0.457 0 0 0 13.595 3.097 A 0.307 0.307 0 0 0 13.445 3.035 A 0.202 0.202 0 0 0 13.421 3.034 Q 13.332 3.034 13.246 3.113 A 0.544 0.544 0 0 0 13.2 3.16 A 1.266 1.266 0 0 0 13.07 3.313 A 1.524 1.524 0 0 0 13.015 3.395 A 1.616 1.616 0 0 0 12.929 3.551 A 2.154 2.154 0 0 0 12.86 3.71 L 12.86 6.33 A 0.748 0.748 0 0 0 12.871 6.463 Q 12.89 6.567 12.94 6.645 A 0.359 0.359 0 0 0 13.06 6.759 Q 13.108 6.788 13.168 6.808 A 0.712 0.712 0 0 0 13.21 6.82 L 13.51 6.91 L 13.51 7.1 Z M 15.92 4.98 L 15.92 2.61 L 15.21 2.61 L 15.21 2.39 L 15.48 2.35 A 1.579 1.579 0 0 0 15.733 2.286 A 1.172 1.172 0 0 0 15.975 2.17 Q 16.18 2.04 16.35 1.81 L 17 0.91 L 17.3 0.91 L 17.27 2.3 L 18.41 2.3 L 18.41 2.61 L 17.26 2.61 L 17.26 6.02 A 1.336 1.336 0 0 0 17.274 6.218 Q 17.306 6.433 17.415 6.56 A 0.526 0.526 0 0 0 17.575 6.688 A 0.489 0.489 0 0 0 17.8 6.74 A 0.723 0.723 0 0 0 18.04 6.701 A 0.662 0.662 0 0 0 18.16 6.645 Q 18.32 6.55 18.48 6.39 L 18.61 6.54 Q 18.42 6.87 18.08 7.055 Q 17.772 7.223 17.332 7.238 A 2.584 2.584 0 0 1 17.24 7.24 A 2.033 2.033 0 0 1 16.846 7.204 Q 16.618 7.159 16.439 7.057 A 1.104 1.104 0 0 1 16.265 6.935 Q 15.984 6.694 15.926 6.212 A 2.25 2.25 0 0 1 15.91 5.94 A 21.28 21.28 0 0 1 15.911 5.706 A 18.05 18.05 0 0 1 15.915 5.485 A 16.569 16.569 0 0 0 15.918 5.313 Q 15.919 5.237 15.92 5.154 A 29.705 29.705 0 0 0 15.92 4.98 Z M 30.12 7.1 L 27.79 7.1 L 27.79 6.91 L 27.94 6.87 A 0.494 0.494 0 0 0 28.128 6.761 Q 28.222 6.671 28.254 6.528 A 0.732 0.732 0 0 0 28.27 6.37 Q 28.27 6.03 28.275 5.685 Q 28.28 5.34 28.28 5 L 28.28 1.2 A 1.016 1.016 0 0 0 28.274 1.09 Q 28.261 0.971 28.218 0.897 A 0.283 0.283 0 0 0 28.21 0.885 A 0.278 0.278 0 0 0 28.135 0.811 Q 28.062 0.761 27.94 0.73 L 27.79 0.69 L 27.79 0.5 L 29.54 0.08 L 29.67 0.17 L 29.63 1.58 L 29.63 6.37 A 0.959 0.959 0 0 0 29.646 6.507 Q 29.66 6.578 29.685 6.636 A 0.487 0.487 0 0 0 29.715 6.695 A 0.336 0.336 0 0 0 29.83 6.809 Q 29.877 6.838 29.938 6.858 A 0.7 0.7 0 0 0 29.98 6.87 L 30.12 6.91 L 30.12 7.1 Z M 7.417 7.167 A 2.988 2.988 0 0 0 8.09 7.24 A 3.197 3.197 0 0 0 8.624 7.197 A 2.389 2.389 0 0 0 9.39 6.935 Q 9.94 6.63 10.245 6.055 A 2.534 2.534 0 0 0 10.492 5.34 A 3.451 3.451 0 0 0 10.55 4.69 A 3.307 3.307 0 0 0 10.494 4.068 A 2.373 2.373 0 0 0 10.225 3.325 Q 9.9 2.76 9.345 2.455 A 2.385 2.385 0 0 0 8.851 2.252 A 2.754 2.754 0 0 0 8.09 2.15 Q 7.39 2.15 6.835 2.455 Q 6.28 2.76 5.955 3.33 A 2.396 2.396 0 0 0 5.692 4.041 A 3.23 3.23 0 0 0 5.63 4.69 A 3.456 3.456 0 0 0 5.684 5.317 A 2.506 2.506 0 0 0 5.935 6.05 Q 6.24 6.62 6.795 6.93 A 2.352 2.352 0 0 0 7.417 7.167 Z M 24.177 7.167 A 2.988 2.988 0 0 0 24.85 7.24 A 3.197 3.197 0 0 0 25.384 7.197 A 2.389 2.389 0 0 0 26.15 6.935 Q 26.7 6.63 27.005 6.055 A 2.534 2.534 0 0 0 27.252 5.34 A 3.451 3.451 0 0 0 27.31 4.69 A 3.307 3.307 0 0 0 27.254 4.068 A 2.373 2.373 0 0 0 26.985 3.325 Q 26.66 2.76 26.105 2.455 A 2.385 2.385 0 0 0 25.611 2.252 A 2.754 2.754 0 0 0 24.85 2.15 Q 24.15 2.15 23.595 2.455 Q 23.04 2.76 22.715 3.33 A 2.396 2.396 0 0 0 22.452 4.041 A 3.23 3.23 0 0 0 22.39 4.69 A 3.456 3.456 0 0 0 22.444 5.317 A 2.506 2.506 0 0 0 22.695 6.05 Q 23 6.62 23.555 6.93 A 2.352 2.352 0 0 0 24.177 7.167 Z M 35.137 7.167 A 2.988 2.988 0 0 0 35.81 7.24 A 3.197 3.197 0 0 0 36.344 7.197 A 2.389 2.389 0 0 0 37.11 6.935 Q 37.66 6.63 37.965 6.055 A 2.534 2.534 0 0 0 38.212 5.34 A 3.451 3.451 0 0 0 38.27 4.69 A 3.307 3.307 0 0 0 38.214 4.068 A 2.373 2.373 0 0 0 37.945 3.325 Q 37.62 2.76 37.065 2.455 A 2.385 2.385 0 0 0 36.571 2.252 A 2.754 2.754 0 0 0 35.81 2.15 Q 35.11 2.15 34.555 2.455 Q 34 2.76 33.675 3.33 A 2.396 2.396 0 0 0 33.412 4.041 A 3.23 3.23 0 0 0 33.35 4.69 A 3.456 3.456 0 0 0 33.404 5.317 A 2.506 2.506 0 0 0 33.655 6.05 Q 33.96 6.62 34.515 6.93 A 2.352 2.352 0 0 0 35.137 7.167 Z M 32.87 7.1 L 30.58 7.1 L 30.58 6.91 L 30.73 6.87 A 0.731 0.731 0 0 0 30.837 6.829 Q 30.891 6.803 30.931 6.77 A 0.303 0.303 0 0 0 31 6.69 A 0.508 0.508 0 0 0 31.047 6.579 Q 31.074 6.489 31.08 6.37 L 31.08 4.53 L 31.08 3.955 A 15.238 15.238 0 0 0 31.071 3.428 A 16.868 16.868 0 0 0 31.07 3.41 Q 31.07 3.271 31.034 3.173 A 0.39 0.39 0 0 0 30.995 3.095 Q 30.92 2.98 30.72 2.94 L 30.58 2.91 L 30.58 2.73 L 32.33 2.15 L 32.45 2.26 L 32.42 3.68 L 32.42 6.38 A 0.868 0.868 0 0 0 32.429 6.508 Q 32.446 6.621 32.495 6.7 Q 32.557 6.799 32.696 6.857 A 0.765 0.765 0 0 0 32.76 6.88 L 32.87 6.91 L 32.87 7.1 Z M 8.09 6.96 A 1.084 1.084 0 0 0 8.348 6.931 A 0.77 0.77 0 0 0 8.675 6.765 Q 8.891 6.578 8.992 6.12 A 2.668 2.668 0 0 0 9 6.08 Q 9.09 5.637 9.099 4.877 A 14.511 14.511 0 0 0 9.1 4.71 Q 9.1 3.82 9 3.325 A 2.227 2.227 0 0 0 8.934 3.07 Q 8.848 2.808 8.71 2.668 A 0.6 0.6 0 0 0 8.675 2.635 Q 8.45 2.44 8.09 2.44 A 1.081 1.081 0 0 0 7.84 2.467 A 0.749 0.749 0 0 0 7.51 2.635 A 0.734 0.734 0 0 0 7.368 2.812 Q 7.264 2.987 7.199 3.263 A 2.783 2.783 0 0 0 7.185 3.325 A 3.826 3.826 0 0 0 7.13 3.673 Q 7.08 4.098 7.08 4.71 A 11.953 11.953 0 0 0 7.09 5.21 Q 7.112 5.739 7.185 6.08 Q 7.29 6.57 7.51 6.765 A 0.754 0.754 0 0 0 7.857 6.936 A 1.096 1.096 0 0 0 8.09 6.96 Z M 24.85 6.96 A 1.084 1.084 0 0 0 25.108 6.931 A 0.77 0.77 0 0 0 25.435 6.765 Q 25.651 6.578 25.752 6.12 A 2.668 2.668 0 0 0 25.76 6.08 Q 25.85 5.637 25.859 4.877 A 14.511 14.511 0 0 0 25.86 4.71 Q 25.86 3.82 25.76 3.325 A 2.227 2.227 0 0 0 25.694 3.07 Q 25.608 2.808 25.47 2.668 A 0.6 0.6 0 0 0 25.435 2.635 Q 25.21 2.44 24.85 2.44 A 1.081 1.081 0 0 0 24.6 2.467 A 0.749 0.749 0 0 0 24.27 2.635 A 0.734 0.734 0 0 0 24.128 2.812 Q 24.024 2.987 23.959 3.263 A 2.783 2.783 0 0 0 23.945 3.325 A 3.826 3.826 0 0 0 23.89 3.673 Q 23.84 4.098 23.84 4.71 A 11.953 11.953 0 0 0 23.85 5.21 Q 23.872 5.739 23.945 6.08 Q 24.05 6.57 24.27 6.765 A 0.754 0.754 0 0 0 24.617 6.936 A 1.096 1.096 0 0 0 24.85 6.96 Z M 35.81 6.96 A 1.084 1.084 0 0 0 36.068 6.931 A 0.77 0.77 0 0 0 36.395 6.765 Q 36.611 6.578 36.712 6.12 A 2.668 2.668 0 0 0 36.72 6.08 Q 36.81 5.637 36.819 4.877 A 14.511 14.511 0 0 0 36.82 4.71 Q 36.82 3.82 36.72 3.325 A 2.227 2.227 0 0 0 36.654 3.07 Q 36.568 2.808 36.43 2.668 A 0.6 0.6 0 0 0 36.395 2.635 Q 36.17 2.44 35.81 2.44 A 1.081 1.081 0 0 0 35.56 2.467 A 0.749 0.749 0 0 0 35.23 2.635 A 0.734 0.734 0 0 0 35.088 2.812 Q 34.984 2.987 34.919 3.263 A 2.783 2.783 0 0 0 34.905 3.325 A 3.826 3.826 0 0 0 34.85 3.673 Q 34.8 4.098 34.8 4.71 A 11.953 11.953 0 0 0 34.81 5.21 Q 34.832 5.739 34.905 6.08 Q 35.01 6.57 35.23 6.765 A 0.754 0.754 0 0 0 35.577 6.936 A 1.096 1.096 0 0 0 35.81 6.96 Z M 1.96 3.59 L 1.96 4.25 L 2.38 4.25 Q 2.88 4.25 3.195 4.095 A 0.91 0.91 0 0 0 3.571 3.746 A 1.261 1.261 0 0 0 3.665 3.56 Q 3.817 3.188 3.82 2.537 A 5.725 5.725 0 0 0 3.82 2.51 A 4.401 4.401 0 0 0 3.804 2.12 Q 3.768 1.723 3.655 1.465 Q 3.49 1.09 3.16 0.935 Q 2.877 0.802 2.477 0.783 A 2.888 2.888 0 0 0 2.34 0.78 L 1.97 0.78 Q 1.96 1.47 1.96 2.175 L 1.96 3.59 Z M 31.417 1.545 A 0.859 0.859 0 0 0 31.73 1.6 A 1.022 1.022 0 0 0 31.751 1.6 A 0.797 0.797 0 0 0 32.29 1.39 Q 32.52 1.18 32.52 0.86 A 0.914 0.914 0 0 0 32.519 0.819 A 0.675 0.675 0 0 0 32.29 0.325 A 0.788 0.788 0 0 0 32.035 0.171 A 0.881 0.881 0 0 0 31.73 0.12 Q 31.4 0.12 31.17 0.325 A 0.663 0.663 0 0 0 30.982 0.6 A 0.769 0.769 0 0 0 30.94 0.86 A 0.866 0.866 0 0 0 30.941 0.895 A 0.682 0.682 0 0 0 31.17 1.39 A 0.785 0.785 0 0 0 31.417 1.545 Z" vector-effect="non-scaling-stroke"/></g></svg>